<svg xmlns="http://www.w3.org/2000/svg" aria-hidden="true" style="position:absolute;width:0;height:0;overflow:hidden">
  <defs>
    <symbol id="icon-Swatches" viewBox="0 0 32 32">
      <path fill="none" stroke="#fff" stroke-linecap="round" stroke-linejoin="round" stroke-width=".96" d="M4.587 21.625 7.612 4.488a.993.993 0 0 1 .76-.805.98.98 0 0 1 .389-.008l6.9 1.212a1.015 1.015 0 0 1 .813 1.162l-3.037 17.238A4.51 4.51 0 0 1 8.3 26.949c-2.487-.4-4.15-2.837-3.713-5.325z" style="stroke:var(--color1, #fff)"/>
      <path fill="none" stroke="#fff" stroke-linecap="round" stroke-linejoin="round" stroke-width=".96" d="m14.787 15.6 9.112-3.313a1.006 1.006 0 0 1 1.085.264c.089.097.158.212.203.336l2.4 6.575a1.004 1.004 0 0 1-.6 1.275l-16.45 5.988" style="stroke:var(--color1, #fff)"/>
      <path fill="none" stroke="#fff" stroke-linecap="round" stroke-linejoin="round" stroke-width=".96" d="M27.5 20.313v5.688a.997.997 0 0 1-1 1H9" style="stroke:var(--color1, #fff)"/>
      <path fill="#fff" d="M9 24a1.5 1.5 0 1 0-.001-3.001A1.5 1.5 0 0 0 9 24z" style="fill:var(--color1, #fff)"/>
    </symbol>
    <symbol id="icon-VideoCamera" viewBox="0 0 32 32">
      <path fill="none" stroke="#fff" stroke-linecap="round" stroke-linejoin="round" stroke-width=".96" d="M3 7.5h16a4.003 4.003 0 0 1 4 4v12a.997.997 0 0 1-1 1H6a4.003 4.003 0 0 1-4-4v-12a.997.997 0 0 1 1-1v0z" style="stroke:var(--color1, #fff)"/>
      <path fill="none" stroke="#fff" stroke-linecap="round" stroke-linejoin="round" stroke-width=".96" d="m23 14 7-4v12l-7-4" style="stroke:var(--color1, #fff)"/>
    </symbol>
    <symbol id="icon-Planet" viewBox="0 0 32 32">
      <path fill="none" stroke="#fff" stroke-linecap="round" stroke-linejoin="round" stroke-width=".96" d="M16 27c6.075 0 11-4.925 11-11S22.075 5 16 5 5 9.925 5 16s4.925 11 11 11z" style="stroke:var(--color1, #fff)"/>
      <path fill="none" stroke="#fff" stroke-linecap="round" stroke-linejoin="round" stroke-width=".96" d="M23.025 7.538c3.462-.95 6.063-.862 6.837.462 1.375 2.387-3.712 7.912-11.363 12.325S3.524 26.388 2.136 24c-.762-1.325.462-3.625 3.013-6.15" style="stroke:var(--color1, #fff)"/>
    </symbol>
    <symbol id="icon-PaintBrush" viewBox="0 0 32 32">
      <path fill="none" stroke="#fff" stroke-linecap="round" stroke-linejoin="round" stroke-width=".96" d="M2.5 27h9A6.5 6.5 0 1 0 5 20.5C5 25 2.5 27 2.5 27z" style="stroke:var(--color1, #fff)"/>
      <path fill="none" stroke="#fff" stroke-linecap="round" stroke-linejoin="round" stroke-width=".96" d="M14.05 14.525c2.4-3.237 8.5-10.65 14.075-10.65 0 5.575-7.412 11.675-10.65 14.075" style="stroke:var(--color1, #fff)"/>
      <path fill="none" stroke="#fff" stroke-linecap="round" stroke-linejoin="round" stroke-width=".96" d="M16.625 11.325a10.673 10.673 0 0 1 4.05 4.05" style="stroke:var(--color1, #fff)"/>
    </symbol>
    <symbol id="icon-MusicNotes" viewBox="0 0 32 32">
      <path fill="none" stroke="#fff" stroke-linecap="round" stroke-linejoin="round" stroke-width=".96" d="M22.5 25a3.5 3.5 0 1 0 0-7 3.5 3.5 0 0 0 0 7zM6.5 29a3.5 3.5 0 1 0 0-7 3.5 3.5 0 0 0 0 7zM26 10l-16 4" style="stroke:var(--color1, #fff)"/>
      <path fill="none" stroke="#fff" stroke-linecap="round" stroke-linejoin="round" stroke-width=".96" d="M10 25.5V8l16-4v17.5" style="stroke:var(--color1, #fff)"/>
    </symbol>
    <symbol id="icon-MagicWand" viewBox="0 0 32 32">
      <path fill="none" stroke="#fff" stroke-linecap="round" stroke-linejoin="round" stroke-width=".96" d="M27 16v6M24 19h6M10.5 5v5M8 7.5h5M21 23v4M19 25h4M23.303 4.704 4.715 23.292a.999.999 0 0 0 0 1.414L7.3 27.291a.999.999 0 0 0 1.414 0L27.302 8.703a.999.999 0 0 0 0-1.414l-2.585-2.585a.999.999 0 0 0-1.414 0zM18 10l4 4" style="stroke:var(--color1, #fff)"/>
    </symbol>
    <symbol id="icon-Camera" viewBox="0 0 32 32">
      <path fill="none" stroke="#fff" stroke-linecap="round" stroke-linejoin="round" stroke-width=".96" d="M26 26H6a2 2 0 0 1-2-2V10a2 2 0 0 1 2-2h4l2-3h8l2 3h4a2 2 0 0 1 2 2v14a2 2 0 0 1-2 2z" style="stroke:var(--color1, #fff)"/>
      <path fill="none" stroke="#fff" stroke-linecap="round" stroke-linejoin="round" stroke-width=".96" d="M16 21a4.5 4.5 0 1 0 0-9 4.5 4.5 0 0 0 0 9z" style="stroke:var(--color1, #fff)"/>
    </symbol>
    <symbol id="icon-BookmarksSimple" viewBox="0 0 32 32">
      <path fill="none" stroke="#fff" stroke-linecap="round" stroke-linejoin="round" stroke-width=".96" d="m21 28-7-5-7 5V9a.997.997 0 0 1 1-1h12a.997.997 0 0 1 1 1v19z" style="stroke:var(--color1, #fff)"/>
      <path fill="none" stroke="#fff" stroke-linecap="round" stroke-linejoin="round" stroke-width=".96" d="M11 4h13a.997.997 0 0 1 1 1v19" style="stroke:var(--color1, #fff)"/>
    </symbol>
    <symbol id="icon-Basketball" viewBox="0 0 32 32">
      <path fill="none" stroke="#fff" stroke-linecap="round" stroke-linejoin="round" stroke-width=".96" d="M16 28c6.627 0 12-5.373 12-12S22.627 4 16 4 4 9.373 4 16s5.373 12 12 12z" style="stroke:var(--color1, #fff)"/>
      <path fill="none" stroke="#fff" stroke-linecap="round" stroke-linejoin="round" stroke-width=".96" d="M7.5 7.525A11.985 11.985 0 0 1 11 16a11.985 11.985 0 0 1-3.5 8.475M24.5 7.525a12.012 12.012 0 0 0 0 16.95M4 16h24M16 4v24" style="stroke:var(--color1, #fff)"/>
    </symbol>
    <symbol id="icon-WalletConnect" viewBox="0 0 32 32">
      <path d="M16 32c8.837 0 16-7.163 16-16S24.837 0 16 0 0 7.163 0 16s7.163 16 16 16z" style="fill:var(--color2, #000)"/>
      <path fill="#fff" d="M10.047 12.358c3.219-3.144 8.444-3.144 11.662 0l.388.381a.394.394 0 0 1 0 .569l-1.325 1.294a.208.208 0 0 1-.294 0l-.531-.519c-2.25-2.194-5.888-2.194-8.138 0l-.569.556a.208.208 0 0 1-.294 0l-1.325-1.294a.394.394 0 0 1 0-.569l.425-.419zm14.406 2.675 1.181 1.15a.394.394 0 0 1 0 .569l-5.319 5.194a.42.42 0 0 1-.581 0l-3.775-3.687a.105.105 0 0 0-.144 0l-3.775 3.687a.42.42 0 0 1-.581 0l-5.338-5.194a.394.394 0 0 1 0-.569l1.181-1.15a.42.42 0 0 1 .581 0l3.775 3.688a.105.105 0 0 0 .144 0l3.775-3.688a.42.42 0 0 1 .581 0l3.775 3.688a.105.105 0 0 0 .144 0l3.775-3.688a.443.443 0 0 1 .6 0z" style="fill:var(--color1, #fff)"/>
    </symbol>
    <symbol id="icon-Metamask" viewBox="0 0 32 32">
      <path fill="#e2761b" d="M30.406 1.25 17.92 10.524l2.309-5.471 10.177-3.802z" style="fill:var(--color3, #e2761b)"/>
      <path fill="#e4761b" d="m1.581 1.25 12.386 9.362-2.196-5.559-10.19-3.802zM25.914 22.746l-3.326 5.095 7.115 1.958 2.046-6.94-5.835-.113zM.263 22.859l2.033 6.94 7.115-1.958-3.325-5.095-5.823.113z" style="fill:var(--color4, #e4761b)"/>
      <path fill="#e4761b" d="m9.01 14.138-1.983 2.999 7.065.314-.251-7.592-4.831 4.279zM22.977 14.138l-4.894-4.367-.163 7.68 7.053-.314-1.995-2.999zM9.412 27.841l4.242-2.071-3.664-2.861-.577 4.932zM18.334 25.771l4.254 2.071-.59-4.932-3.664 2.861z" style="fill:var(--color4, #e4761b)"/>
      <path fill="#d7c1b3" d="m22.588 27.842-4.254-2.071.339 2.773-.038 1.167 3.953-1.87zM9.412 27.842l3.953 1.87-.025-1.167.314-2.773-4.242 2.071z" style="fill:var(--color5, #d7c1b3)"/>
      <path fill="#233447" d="m13.428 21.077-3.539-1.042 2.497-1.142 1.042 2.184zM18.56 21.077l1.042-2.184 2.51 1.142-3.551 1.042z" style="fill:var(--color6, #233447)"/>
      <path fill="#cd6116" d="m9.412 27.841.602-5.095-3.928.113 3.326 4.982zM21.986 22.746l.602 5.095 3.325-4.982-3.928-.113zM24.973 17.137l-7.053.314.653 3.627 1.042-2.184 2.51 1.142 2.849-2.899zM9.889 20.036l2.51-1.142 1.029 2.184.665-3.627-7.065-.314 2.861 2.899z" style="fill:var(--color7, #cd6116)"/>
      <path fill="#e4751f" d="M7.028 17.137 9.99 22.91l-.1-2.874-2.861-2.899zM22.124 20.036l-.126 2.874 2.974-5.773-2.849 2.899zM14.093 17.451l-.665 3.627.828 4.279.188-5.634-.351-2.271zM17.92 17.451l-.339 2.259.151 5.647.841-4.279-.653-3.627z" style="fill:var(--color8, #e4751f)"/>
      <path fill="#f6851b" d="m18.573 21.078-.841 4.279.602.414 3.664-2.861.126-2.874-3.551 1.042zM9.889 20.036l.1 2.874 3.664 2.861.602-.414-.828-4.279-3.539-1.042z" style="fill:var(--color9, #f6851b)"/>
      <path fill="#c0ad9e" d="m18.635 29.711.038-1.167-.314-.276h-4.731l-.289.276.025 1.167-3.953-1.87 1.38 1.129 2.798 1.945h4.806l2.811-1.945 1.38-1.129-3.953 1.87z" style="fill:var(--color10, #c0ad9e)"/>
      <path fill="#161616" d="m18.334 25.771-.602-.414h-3.476l-.602.414-.314 2.773.289-.276h4.731l.314.276-.339-2.773z" style="fill:var(--color11, #161616)"/>
      <path fill="#763d16" d="M30.933 11.126 32 6.006 30.406 1.25l-12.072 8.96 4.643 3.928 6.563 1.92 1.456-1.694-.627-.452 1.004-.916-.778-.602 1.004-.765-.665-.502zM0 6.006l1.067 5.12-.678.502 1.004.765-.765.602 1.004.916-.627.452 1.443 1.694 6.563-1.92 4.643-3.928-12.072-8.96L.001 6.005z" style="fill:var(--color12, #763d16)"/>
      <path fill="#f6851b" d="m29.54 16.058-6.563-1.92 1.995 2.999-2.974 5.773 3.915-.05h5.835l-2.209-6.802zM9.01 14.138l-6.563 1.92L.263 22.86h5.823l3.903.05-2.962-5.773 1.983-2.999zM17.92 17.451l.414-7.241 1.907-5.158H11.77l1.882 5.158.439 7.241.151 2.284.012 5.622h3.476l.025-5.622.163-2.284z" style="fill:var(--color9, #f6851b)"/>
    </symbol>
    <symbol id="icon-Coinbase" viewBox="0 0 32 32">
      <path fill="#0052ff" d="M16 32c8.837 0 16-7.163 16-16S24.837 0 16 0 0 7.163 0 16s7.163 16 16 16z" style="fill:var(--color13, #0052ff)"/>
      <path fill="#fff" d="M4.75 16C4.75 9.787 9.787 4.75 16 4.75S27.25 9.787 27.25 16 22.213 27.25 16 27.25 4.75 22.213 4.75 16zm8.375-3.625a.75.75 0 0 0-.75.75v5.75c0 .414.336.75.75.75h5.75a.75.75 0 0 0 .75-.75v-5.75a.75.75 0 0 0-.75-.75h-5.75z" style="fill:var(--color1, #fff)"/>
    </symbol>
    <symbol id="icon-Storefront" viewBox="0 0 32 32">
      <path fill="#fff" d="M6 12.45a1 1 0 0 1 1 1V26h18V13.45a1 1 0 0 1 2 0V26a2 2 0 0 1-2 2H7a2 2 0 0 1-2-2V13.45a1 1 0 0 1 1-1zM3 5a1 1 0 0 1 1-1h24a1 1 0 0 1 0 2H4a1 1 0 0 1-1-1z" style="fill:var(--color1, #fff)"/>
      <path fill="#fff" d="M4 7a1 1 0 0 1 1 1v2a3.004 3.004 0 0 0 3 3 3.004 3.004 0 0 0 3-3V8a1 1 0 0 1 2 0v2a5 5 0 0 1-10 0V8a1 1 0 0 1 1-1z" style="fill:var(--color1, #fff)"/>
      <path fill="#fff" d="M12 7a1 1 0 0 1 1 1v2a3.004 3.004 0 0 0 3 3 3.004 3.004 0 0 0 3-3V8a1 1 0 0 1 2 0v2a4.997 4.997 0 0 1-5 4.999A5 5 0 0 1 11.001 10V8a1 1 0 0 1 1-1z" style="fill:var(--color1, #fff)"/>
      <path fill="#fff" d="M20 7a1 1 0 0 1 1 1v2a3.004 3.004 0 0 0 3 3 3.004 3.004 0 0 0 3-3V8a1 1 0 0 1 2 0v2a4.997 4.997 0 0 1-5 4.999A5 5 0 0 1 19 10V8a1 1 0 0 1 1-1z" style="fill:var(--color1, #fff)"/>
    </symbol>
    <symbol id="icon-TrendUp" viewBox="0 0 32 32">
      <path fill="#fff" d="M29.707 6.293a1 1 0 0 1 0 1.414l-12 12a1 1 0 0 1-1.414 0L12 15.414l-8.293 8.293a1 1 0 0 1-1.414-1.414l9-9a1 1 0 0 1 1.414 0L17 17.586 28.293 6.293a.999.999 0 0 1 1.414 0z" style="fill:var(--color1, #fff)"/>
      <path fill="#fff" d="M20 7a1 1 0 0 1 1-1h8a1 1 0 0 1 1 1v8a1 1 0 0 1-2 0V8h-7a1 1 0 0 1-1-1z" style="fill:var(--color1, #fff)"/>
    </symbol>
    <symbol id="icon-TwitterLogo" viewBox="0 0 32 32">
      <path fill="none" stroke="#fff" stroke-linecap="round" stroke-linejoin="round" stroke-width="2" d="M16 11.001c0-2.75 2.313-5.038 5.063-5a5 5 0 0 1 4.525 3h4.413l-4.038 4.038a15.988 15.988 0 0 1-15.962 14.962c-4 0-5-1.5-5-1.5s4-1.5 6-4.5c0 0-8-4-6-15 0 0 5 5 11 6v-2z" style="stroke:var(--color1, #fff)"/>
    </symbol>
    <symbol id="icon-User" viewBox="0 0 32 32">
      <path fill="#fff" d="M16 5a7 7 0 1 0 0 14 7 7 0 0 0 0-14zm-9 7c0-4.971 4.029-9 9-9s9 4.029 9 9-4.029 9-9 9-9-4.029-9-9z" style="fill:var(--color1, #fff)"/>
      <path fill="#fff" d="M16 20.999A13.006 13.006 0 0 0 4.741 27.5a1 1 0 0 1-1.732-1 14.997 14.997 0 0 1 20.492-5.491 15.015 15.015 0 0 1 5.491 5.491 1 1 0 0 1-1.732 1 12.997 12.997 0 0 0-11.258-6.501z" style="fill:var(--color1, #fff)"/>
    </symbol>
    <symbol id="icon-UserCircle" viewBox="0 0 32 32">
      <path fill="#fff" d="M16 5C9.925 5 5 9.925 5 16s4.925 11 11 11 11-4.925 11-11S22.075 5 16 5zM3 16C3 8.82 8.82 3 16 3s13 5.82 13 13-5.82 13-13 13S3 23.18 3 16z" style="fill:var(--color1, #fff)"/>
      <path fill="#fff" d="M16 11a4 4 0 1 0 0 8 4 4 0 0 0 0-8zm-6 4a6 6 0 1 1 12 0 6 6 0 0 1-12 0z" style="fill:var(--color1, #fff)"/>
      <path fill="#fff" d="M16 20.999a8 8 0 0 0-7.133 4.379 1 1 0 0 1-1.783-.905A10.003 10.003 0 0 1 16 19a9.999 9.999 0 0 1 8.917 5.473 1 1 0 0 1-1.783.905 8.006 8.006 0 0 0-7.133-4.379z" style="fill:var(--color1, #fff)"/>
    </symbol>
    <symbol id="icon-Wallet" viewBox="0 0 32 32">
      <path fill="#fff" d="M7 7a.997.997 0 0 0-1 1 .997.997 0 0 0 1 1h20a2 2 0 0 1 2 2v14a2 2 0 0 1-2 2H7a3.004 3.004 0 0 1-3-3V8a3.004 3.004 0 0 1 3-3h17a1 1 0 0 1 0 2H7zm-1 3.828V24a.997.997 0 0 0 1 1h20V11H7c-.344 0-.682-.059-1-.172z" style="fill:var(--color1, #fff)"/>
      <path fill="#fff" d="M22.5 19.5a1.5 1.5 0 1 0-.001-3.001A1.5 1.5 0 0 0 22.5 19.5z" style="fill:var(--color1, #fff)"/>
    </symbol>
    <symbol id="icon-YoutubeLogo" viewBox="0 0 32 32">
      <path fill="#fff" d="M13.528 11.118a1 1 0 0 1 1.027.05l6 4a1 1 0 0 1 0 1.664l-6 4A1.002 1.002 0 0 1 13 20v-8a1 1 0 0 1 .528-.882zM15 13.868v4.263L18.197 16 15 13.869z" style="fill:var(--color1, #fff)"/>
      <path fill="#fff" d="M15.998 5.05h.083l.236.002a54.501 54.501 0 0 1 3.76.183c2.276.192 5.174.591 7.406 1.444l.015.006a3.021 3.021 0 0 1 1.796 2.04l.001.004c.311 1.219.706 3.478.706 7.273s-.395 6.054-.706 7.273l-.001.004a3.015 3.015 0 0 1-1.796 2.04l-.015.006c-2.231.852-5.129 1.251-7.406 1.444a54.501 54.501 0 0 1-3.76.183l-.236.002h-.162c-.055 0-.134 0-.236-.002a54.501 54.501 0 0 1-3.76-.183c-2.276-.192-5.174-.591-7.406-1.444l-.015-.006a3.021 3.021 0 0 1-1.796-2.04l-.001-.004c-.311-1.219-.706-3.478-.706-7.273s.395-6.054.706-7.273l.001-.004a3.015 3.015 0 0 1 1.796-2.04l.015-.006c2.231-.853 5.129-1.251 7.406-1.444a54.501 54.501 0 0 1 3.76-.183l.236-.002h.08zm-.003 19.9h.082c.049 0 .123 0 .219-.002a52.639 52.639 0 0 0 3.613-.176c2.236-.189 4.896-.57 6.852-1.316a1.01 1.01 0 0 0 .597-.681c.264-1.032.643-3.122.643-6.775s-.38-5.743-.643-6.775a1.009 1.009 0 0 0-.597-.681c-1.956-.745-4.616-1.127-6.852-1.316a52.639 52.639 0 0 0-3.613-.176l-.219-.002h-.153c-.049 0-.123 0-.219.002a52.639 52.639 0 0 0-3.613.176c-2.236.189-4.896.57-6.851 1.316a1.01 1.01 0 0 0-.597.681c-.264 1.032-.643 3.122-.643 6.775s.38 5.743.643 6.775a1.009 1.009 0 0 0 .597.681c1.956.745 4.616 1.127 6.852 1.316a52.58 52.58 0 0 0 3.613.176l.219.002h.071z" style="fill:var(--color1, #fff)"/>
    </symbol>
    <symbol id="icon-Rocket" viewBox="0 0 32 32">
      <path fill="#fff" d="M13 28a1 1 0 0 1 1-1h4a1 1 0 0 1 0 2h-4a1 1 0 0 1-1-1zM14.743 1.699a1.974 1.974 0 0 1 2.517.003c1.242 1.011 3.93 3.518 5.417 7.383 1.509 3.922 1.739 9.137-1.807 15.406a.999.999 0 0 1-.87.508h-8a1 1 0 0 1-.866-.5C7.516 18.228 7.738 13.006 9.263 9.078c1.502-3.866 4.224-6.372 5.48-7.379zM16 3.255c-1.121.897-3.549 3.139-4.872 6.547-1.265 3.256-1.564 7.677 1.457 13.197h6.824c2.958-5.518 2.654-9.938 1.401-13.196-1.309-3.402-3.698-5.642-4.811-6.549z" style="fill:var(--color1, #fff)"/>
      <path fill="#fff" d="M9.878 13.157a1 1 0 0 1 .127 1.409l-3.917 4.69.001.003 1.537 6.959 3.749-3a1 1 0 0 1 1.25 1.562l-3.75 3a2.003 2.003 0 0 1-1.912.325c-.32-.113-.606-.305-.832-.558s-.383-.56-.457-.891l-.001-.003-1.535-6.951a1.953 1.953 0 0 1 .41-1.723l3.922-4.696c.354-.424.985-.48 1.409-.127zM22.047 13.057a1 1 0 0 1 1.408.128l3.996 4.796a1.95 1.95 0 0 1 .409 1.722l-1.536 6.954a2.009 2.009 0 0 1-1.288 1.449 2.002 2.002 0 0 1-1.912-.324l-3.75-3a1 1 0 0 1 1.249-1.562l3.75 3 1.537-6.959.001-.003-3.992-4.791a1 1 0 0 1 .128-1.408zM16 13.5a1.5 1.5 0 1 0-.001-3.001A1.5 1.5 0 0 0 16 13.5z" style="fill:var(--color1, #fff)"/>
    </symbol>
    <symbol id="icon-Plus" viewBox="0 0 32 32">
      <path fill="#fff" d="M4 16a1 1 0 0 1 1-1h22a1 1 0 0 1 0 2H5a1 1 0 0 1-1-1z" style="fill:var(--color1, #fff)"/>
      <path fill="#fff" d="M16 4a1 1 0 0 1 1 1v22a1 1 0 0 1-2 0V5a1 1 0 0 1 1-1z" style="fill:var(--color1, #fff)"/>
    </symbol>
    <symbol id="icon-MagnifyingGlass" viewBox="0 0 32 32">
      <path fill="#fff" d="M14.5 5C9.253 5 5 9.253 5 14.5S9.253 24 14.5 24s9.5-4.253 9.5-9.5S19.747 5 14.5 5zM3 14.5C3 8.149 8.149 3 14.5 3S26 8.149 26 14.5 20.851 26 14.5 26 3 20.851 3 14.5z" style="fill:var(--color1, #fff)"/>
      <path fill="#fff" d="M21.218 21.218a1 1 0 0 1 1.414 0l6.075 6.075a1 1 0 0 1-1.414 1.414l-6.075-6.075a1 1 0 0 1 0-1.414z" style="fill:var(--color1, #fff)"/>
    </symbol>
    <symbol id="icon-LockKey" viewBox="0 0 32 32">
      <path fill="#fff" d="M16 16a1.5 1.5 0 1 0 .001 3.001A1.5 1.5 0 0 0 16 16zm-3.5 1.5a3.5 3.5 0 1 1 7 0 3.5 3.5 0 0 1-7 0z" style="fill:var(--color1, #fff)"/>
      <path fill="#fff" d="M16 19a1 1 0 0 1 1 1v3a1 1 0 0 1-2 0v-3a1 1 0 0 1 1-1z" style="fill:var(--color1, #fff)"/>
      <path fill="#fff" d="M4 12a2 2 0 0 1 2-2h20a2 2 0 0 1 2 2v14a2 2 0 0 1-2 2H6a2 2 0 0 1-2-2V12zm22 0H6v14h20V12z" style="fill:var(--color1, #fff)"/>
      <path fill="#fff" d="M16 3a3.502 3.502 0 0 0-3.5 3.5V11a1 1 0 0 1-2 0V6.5A5.496 5.496 0 0 1 16 1a5.496 5.496 0 0 1 5.5 5.5V11a1 1 0 0 1-2 0V6.5A3.502 3.502 0 0 0 16 3z" style="fill:var(--color1, #fff)"/>
    </symbol>
    <symbol id="icon-List" viewBox="0 0 32 32">
      <path fill="#fff" d="M4 16a1 1 0 0 1 1-1h22a1 1 0 0 1 0 2H5a1 1 0 0 1-1-1zM4 8a1 1 0 0 1 1-1h15a1 1 0 0 1 0 2H5a1 1 0 0 1-1-1zM4 24a1 1 0 0 1 1-1h15a1 1 0 0 1 0 2H5a1 1 0 0 1-1-1z" style="fill:var(--color1, #fff)"/>
    </symbol>
    <symbol id="icon-InstagramLogo" viewBox="0 0 32 32">
      <path fill="#fff" d="M16 12a4 4 0 1 0 0 8 4 4 0 0 0 0-8zm-6 4a6 6 0 1 1 12 0 6 6 0 0 1-12 0z" style="fill:var(--color1, #fff)"/>
      <path fill="#fff" d="M10.5 5.5a5 5 0 0 0-5 5v11a5 5 0 0 0 5 5h11a5 5 0 0 0 5-5v-11a5 5 0 0 0-5-5h-11zm-7 5a7 7 0 0 1 7-7h11a7 7 0 0 1 7 7v11a7 7 0 0 1-7 7h-11a7 7 0 0 1-7-7v-11z" style="fill:var(--color1, #fff)"/>
      <path fill="#fff" d="M22.5 11a1.5 1.5 0 1 0-.001-3.001A1.5 1.5 0 0 0 22.5 11z" style="fill:var(--color1, #fff)"/>
    </symbol>
    <symbol id="icon-Globe" viewBox="0 0 32 32">
      <path fill="#fff" d="M16 5C9.925 5 5 9.925 5 16s4.925 11 11 11 11-4.925 11-11S22.075 5 16 5zM3 16C3 8.82 8.82 3 16 3s13 5.82 13 13-5.82 13-13 13S3 23.18 3 16z" style="fill:var(--color1, #fff)"/>
      <path fill="#fff" d="M3.688 12a1 1 0 0 1 1-1h22.625a1 1 0 0 1 0 2H4.688a1 1 0 0 1-1-1zM3.688 20a1 1 0 0 1 1-1h22.625a1 1 0 0 1 0 2H4.688a1 1 0 0 1-1-1z" style="fill:var(--color1, #fff)"/>
      <path fill="#fff" d="M13.384 8.138C12.544 10.099 12 12.878 12 16s.544 5.901 1.384 7.862c.421.982.896 1.713 1.373 2.184.473.467.892.629 1.243.629s.771-.162 1.244-.629c.477-.471.952-1.202 1.373-2.184.84-1.961 1.384-4.74 1.384-7.862s-.544-5.901-1.384-7.862c-.421-.982-.896-1.713-1.373-2.184-.473-.467-.892-.629-1.244-.629s-.771.162-1.244.629c-.477.471-.952 1.202-1.373 2.184zm-.033-3.607c.724-.715 1.62-1.206 2.649-1.206s1.925.491 2.649 1.206c.72.711 1.322 1.689 1.806 2.82C21.425 9.615 22 12.674 22 16s-.575 6.385-1.545 8.649c-.484 1.131-1.086 2.109-1.806 2.82-.724.715-1.62 1.206-2.649 1.206s-1.925-.491-2.649-1.206c-.72-.711-1.322-1.689-1.806-2.82C10.575 22.385 10 19.326 10 16s.575-6.385 1.545-8.649c.484-1.13 1.086-2.109 1.806-2.82z" style="fill:var(--color1, #fff)"/>
    </symbol>
    <symbol id="icon-EyeSlash" viewBox="0 0 32 32">
      <path fill="#fff" d="M5.327 4.26a1 1 0 0 1 1.413.067l20 22a1 1 0 0 1-1.48 1.346l-20-22a1 1 0 0 1 .067-1.413z" style="fill:var(--color1, #fff)"/>
      <path fill="#fff" d="M13.377 11.627a1.002 1.002 0 0 1-.067 1.413 4.005 4.005 0 0 0 .429 6.259 3.996 3.996 0 0 0 2.262.701h.004a3.951 3.951 0 0 0 2.683-1.037 1 1 0 0 1 1.351 1.475 5.95 5.95 0 0 1-4.04 1.563c-1.21 0-2.392-.367-3.39-1.052s-1.767-1.656-2.204-2.785a6.008 6.008 0 0 1 1.561-6.603 1.002 1.002 0 0 1 1.413.067z" style="fill:var(--color1, #fff)"/>
      <path fill="#fff" d="M10.143 8.125a1 1 0 0 1-.442 1.343c-2.377 1.2-4.08 2.939-5.194 4.393a16.225 16.225 0 0 0-1.388 2.138c.118.22.287.52.51.874a16.912 16.912 0 0 0 2.33 2.919c2.116 2.116 5.375 4.207 10.043 4.207h.008a13.732 13.732 0 0 0 6.292-1.468 1 1 0 0 1 .9 1.786 15.736 15.736 0 0 1-7.204 1.682c-5.33-.001-9.07-2.41-11.453-4.793a18.937 18.937 0 0 1-2.608-3.268 15.742 15.742 0 0 1-.788-1.404l-.042-.089-.012-.026-.005-.011v-.001L2.003 16l-.914-.406.001-.003.002-.005.007-.015.024-.051a13.503 13.503 0 0 1 .425-.812c.3-.528.753-1.254 1.372-2.063 1.236-1.614 3.158-3.588 5.881-4.963a1 1 0 0 1 1.343.442zM2 16l-.914-.406a.999.999 0 0 0 0 .812L2 16zM13.247 6.226c.91-.152 1.831-.228 2.754-.226L16 7V6h.001c5.332 0 9.072 2.409 11.456 4.793a18.937 18.937 0 0 1 2.608 3.268 15.742 15.742 0 0 1 .788 1.404l.042.089.012.026.004.008.001.003v.001l-.913.407-.914-.406-.008.017-.035.074a9.861 9.861 0 0 1-.161.316 14.67 14.67 0 0 0-.509-.873 16.952 16.952 0 0 0-2.33-2.92C23.926 10.091 20.667 8 15.999 8h-.002a14.42 14.42 0 0 0-2.42.199 1 1 0 1 1-.33-1.972zM30 16l.914.406a.999.999 0 0 0 0-.812L30 16zm-1.118 0c-.143.268-.361.651-.66 1.107a16.722 16.722 0 0 1-2.814 3.285 1 1 0 1 0 1.333 1.491 18.735 18.735 0 0 0 3.155-3.681c.339-.518.589-.958.756-1.272.084-.157.147-.283.19-.373l.05-.105.014-.031.004-.009.002-.005-.913-.407c-.914.406-.914.407-.913.407l-.006-.013-.029-.061a9.087 9.087 0 0 0-.129-.256L28.881 16z" style="fill:var(--color1, #fff)"/>
      <path fill="#fff" d="M15.955 10.902a1 1 0 0 1 1.169-.796 5.988 5.988 0 0 1 4.847 5.327 1 1 0 1 1-1.991.185 3.985 3.985 0 0 0-3.228-3.547 1 1 0 0 1-.796-1.169z" style="fill:var(--color1, #fff)"/>
    </symbol>
    <symbol id="icon-Eye" viewBox="0 0 32 32">
      <path fill="#fff" d="M4.543 10.793C6.927 8.409 10.667 6 16 6s9.073 2.409 11.457 4.793a18.937 18.937 0 0 1 2.608 3.268 15.742 15.742 0 0 1 .788 1.404l.042.089.012.026.004.008.001.003v.001l-.913.407c.914.406.914.407.913.407v.001l-.001.003-.004.008-.012.026a9.5 9.5 0 0 1-.201.405c-.14.267-.348.642-.629 1.088a18.888 18.888 0 0 1-2.608 3.268c-2.384 2.384-6.125 4.793-11.457 4.793s-9.073-2.409-11.457-4.793a18.937 18.937 0 0 1-2.608-3.268 15.742 15.742 0 0 1-.788-1.404l-.042-.089-.012-.026-.005-.011v-.001l.913-.407a84.037 84.037 0 0 1-.913-.407v-.001l.005-.011.012-.026a10.602 10.602 0 0 1 .201-.405c.14-.267.348-.642.629-1.088a18.888 18.888 0 0 1 2.608-3.268zM2 16l-.914-.406a.999.999 0 0 0 0 .812L2 16zm1.118 0c.118.22.287.52.509.873a16.912 16.912 0 0 0 2.33 2.919c2.116 2.116 5.376 4.207 10.043 4.207s7.927-2.091 10.043-4.207a16.95 16.95 0 0 0 2.33-2.919c.223-.354.392-.653.509-.873a14.67 14.67 0 0 0-.509-.873 16.952 16.952 0 0 0-2.33-2.92C23.927 10.091 20.668 8 16 8s-7.927 2.091-10.043 4.207a16.95 16.95 0 0 0-2.33 2.919 13.92 13.92 0 0 0-.509.873zM30 16l.914.406a.999.999 0 0 0 0-.812L30 16z" style="fill:var(--color1, #fff)"/>
      <path fill="#fff" d="M16 12a4 4 0 1 0 0 8 4 4 0 0 0 0-8zm-6 4a6 6 0 1 1 12 0 6 6 0 0 1-12 0z" style="fill:var(--color1, #fff)"/>
    </symbol>
    <symbol id="icon-EnvelopeSimple" viewBox="0 0 32 32">
      <path fill="#fff" d="M3 7a1 1 0 0 1 1-1h24a1 1 0 0 1 1 1v17a2 2 0 0 1-2 2H5a2 2 0 0 1-2-2V7zm2 1v16h22V8H5z" style="fill:var(--color1, #fff)"/>
      <path fill="#fff" d="M3.263 6.324a1 1 0 0 1 1.413-.061L16 16.644 27.324 6.263a1 1 0 0 1 1.352 1.474l-12 11a1 1 0 0 1-1.351 0l-12-11a1 1 0 0 1-.061-1.413z" style="fill:var(--color1, #fff)"/>
    </symbol>
    <symbol id="icon-DiscordLogo" viewBox="0 0 32 32">
      <path fill="#fff" d="M12 19.5a1.5 1.5 0 1 0-.001-3.001A1.5 1.5 0 0 0 12 19.5zM20 19.5a1.5 1.5 0 1 0-.001-3.001A1.5 1.5 0 0 0 20 19.5zM15.993 10a20.877 20.877 0 0 0-6.394.954 1 1 0 1 1-.598-1.908A22.85 22.85 0 0 1 16 8a22.85 22.85 0 0 1 6.999 1.046 1 1 0 1 1-.598 1.908A20.875 20.875 0 0 0 16.008 10h-.015zM8.346 21.701a1 1 0 0 1 1.253-.655c2.069.648 4.226.97 6.394.954h.015a20.866 20.866 0 0 0 6.393-.954 1 1 0 1 1 .598 1.908A22.85 22.85 0 0 1 16 24a22.846 22.846 0 0 1-6.999-1.046 1 1 0 0 1-.655-1.253z" style="fill:var(--color1, #fff)"/>
      <path fill="#fff" d="M20.22 4.811c.43-.243.935-.319 1.418-.213 1.318.286 2.608.686 3.855 1.197a1.962 1.962 0 0 1 1.179 1.286l4.236 14.144a2.015 2.015 0 0 1-.597 2.087l-.005.005c-2.067 1.799-4.869 3.161-8.051 3.941a1.973 1.973 0 0 1-2.265-1.053l-1.508-2.991a1 1 0 1 1 1.786-.9l1.514 3.002c2.938-.72 5.432-1.958 7.212-3.506l.656.754-.662-.75.004-.006a.009.009 0 0 0 0-.007L24.756 7.656l-.011-.004a21.088 21.088 0 0 0-3.532-1.098h-.002c-.003-.001-.006 0-.009.001s-.004.003-.005.006l-.985 2.98a1 1 0 0 1-1.899-.627l.99-2.996c.16-.468.486-.861.916-1.104zM10.798 6.553a.01.01 0 0 0-.009-.001h-.002A21.088 21.088 0 0 0 7.255 7.65l-.011.004-4.236 14.145v.007a.022.022 0 0 0 .003.005c1.78 1.547 4.272 2.783 7.207 3.502l.001-.002 1.512-3a1 1 0 0 1 1.786.9l-1.508 2.992a1.974 1.974 0 0 1-2.266 1.053c-3.182-.78-5.983-2.142-8.051-3.941l-.005-.005a2.02 2.02 0 0 1-.597-2.087L5.326 7.078a1.962 1.962 0 0 1 1.179-1.286 23.011 23.011 0 0 1 3.856-1.197 2.01 2.01 0 0 1 2.333 1.317l.003.009.987 2.987a1 1 0 1 1-1.899.627l-.985-2.98a.01.01 0 0 0-.005-.006z" style="fill:var(--color1, #fff)"/>
    </symbol>
    <symbol id="icon-Copy" viewBox="0 0 32 32">
      <path fill="#fff" d="M10 5a1 1 0 0 1 1-1h16a1 1 0 0 1 1 1v16a1 1 0 0 1-1 1h-6a1 1 0 0 1 0-2h5V6H12v5a1 1 0 0 1-2 0V5z" style="fill:var(--color1, #fff)"/>
      <path fill="#fff" d="M4 11a1 1 0 0 1 1-1h16a1 1 0 0 1 1 1v16a1 1 0 0 1-1 1H5a1 1 0 0 1-1-1V11zm2 1v14h14V12H6z" style="fill:var(--color1, #fff)"/>
    </symbol>
    <symbol id="icon-ArrowRight" viewBox="0 0 32 32">
      <path fill="#fff" d="M4 16a1 1 0 0 1 1-1h22a1 1 0 0 1 0 2H5a1 1 0 0 1-1-1z" style="fill:var(--color1, #fff)"/>
      <path fill="#fff" d="M17.293 6.293a.999.999 0 0 1 1.414 0l9 9a1 1 0 0 1 0 1.414l-9 9a1 1 0 0 1-1.414-1.414L25.586 16l-8.293-8.293a1 1 0 0 1 0-1.414z" style="fill:var(--color1, #fff)"/>
    </symbol>
    <symbol id="icon-ArrowLeft" viewBox="0 0 32 32">
      <path fill="#fff" d="M4 16a1 1 0 0 1 1-1h22a1 1 0 0 1 0 2H5a1 1 0 0 1-1-1z" style="fill:var(--color1, #fff)"/>
      <path fill="#fff" d="M14.707 6.293a1 1 0 0 1 0 1.414L6.414 16l8.293 8.293a1 1 0 0 1-1.414 1.414l-9-9a.999.999 0 0 1 0-1.414l9-9a.999.999 0 0 1 1.414 0z" style="fill:var(--color1, #fff)"/>
    </symbol>
  </defs>
</svg>
